<?xml version="1.0" encoding="UTF-8"?>
<svg id="Layer_2" data-name="Layer 2" xmlns="http://www.w3.org/2000/svg" viewBox="0 0 365 61.85">
  <defs>
    <style>
      .cls-1 {
        fill: #fff;
      }
    </style>
  </defs>
  <g id="Layer_1-2" data-name="Layer 1">
    <g>
      <path class="cls-1" d="M0,0h46.35c0,5.16,0,10.32,0,15.48-5.15,0-10.29,0-15.44,0,0,15.45,0,30.9,0,46.35h-15.5V15.5c-5.14-.01-10.27,0-15.41,0V0Z"/>
      <path class="cls-1" d="M157.85.04c5.15,0,10.3,0,15.46,0v61.81h-15.45c0-20.6,0-41.2,0-61.81Z"/>
      <path class="cls-1" d="M181.36.02c5.22-.02,10.44-.04,15.67.01,7.61,12.32,15.35,24.57,22.94,36.9.08-12.31.01-24.62.04-36.93,5.18,0,10.36-.03,15.54.01,0,20.6,0,41.2,0,61.8-4.95.05-9.91,0-14.86.03-.3-.04-.72.1-.85-.26-7.63-12.28-15.3-24.53-22.92-36.81-.08,5.99,0,11.98-.03,17.96,0,6.36,0,12.72,0,19.08-5.18.04-10.35.03-15.53,0,0-20.6,0-41.2,0-61.81h0Z"/>
      <path class="cls-1" d="M255.18.22c1.43-.27,2.9-.2,4.35-.21,8.3.01,16.61-.03,24.91.02-.01,5.15,0,10.29,0,15.44-8.86.06-17.72,0-26.58.03,0,10.29,0,20.58,0,30.87,4.9,0,9.8,0,14.7,0,.23,0,.45-.05.67-.12-.06-3.05-.03-6.1-.02-9.15-2.62-.15-5.26-.02-7.88-.07,0-3.85,0-7.71,0-11.57,7.77,0,15.55-.01,23.32,0v17.9c-.05,2.11.18,4.25-.33,6.33-.99,4.73-4.38,8.87-8.8,10.83-2.06.92-4.31,1.38-6.56,1.33-5.12,0-10.25.03-15.38-.01-4.29.01-8.5-1.98-11.33-5.18-2.32-2.62-3.74-6.04-3.86-9.54,0-10.52,0-21.05,0-31.57-.08-3.39,1.09-6.77,3.14-9.46,2.32-3.08,5.85-5.22,9.65-5.86Z"/>
      <path class="cls-1" d="M349.55.03c5.15,0,10.3,0,15.44,0,0,14.16,0,28.32,0,42.47h-15.45c0-14.16,0-28.32,0-42.48Z"/>
      <path class="cls-1" d="M52.48,7.12C55.08,3,59.76.22,64.65.03c5.26,0,10.52.01,15.77,0,3.46-.17,6.94.99,9.7,3.07,3.92,2.91,6.28,7.75,6.18,12.63,0,15.37,0,30.74,0,46.11-5.17.01-10.35,0-15.52,0-.01-5.15,0-10.29,0-15.44-5.07,0-10.15,0-15.22,0v15.44c-5.18-.01-10.36.04-15.53-.03.02-15.49,0-30.98,0-46.48.05-2.89.86-5.79,2.45-8.22ZM65.54,30.9c5.07.08,10.15.02,15.22.03.02-5.15-.01-10.29.01-15.42-5.07-.04-10.15-.01-15.23-.01,0,5.14,0,10.27,0,15.41Z"/>
      <path class="cls-1" d="M104.02.02c10.28-.03,20.56,0,30.84-.01,3.38-.08,6.77,1.07,9.45,3.12,4.07,3.02,6.43,8.14,6.1,13.19v15.21c-.11,6.01-4.18,11.65-9.78,13.79,2.32,5.5,4.61,11.03,7,16.5-5.18.07-10.37.03-15.56.01-2.13-5.14-4.37-10.25-6.47-15.4-2.02-.06-4.04-.01-6.06-.03,0,5.14,0,10.28,0,15.42-5.17.04-10.35.03-15.53,0,.01-20.6.01-41.21,0-61.81ZM119.55,30.93c5.14,0,10.27,0,15.4,0,0-5.15,0-10.3,0-15.44-5.13-.01-10.26.01-15.39-.01-.03,5.15-.01,10.3-.01,15.45Z"/>
      <path class="cls-1" d="M300.05,4.54c2.63-2.65,6.26-4.33,10-4.51,5.39,0,10.79.02,16.18,0,1.91-.07,3.83.3,5.61.98,4.74,1.77,8.45,6.02,9.54,10.96.52,2.01.35,4.09.38,6.15,0,14.58,0,29.16,0,43.73h-15.46c0-5.14,0-10.29,0-15.44-5.08-.01-10.15,0-15.23,0,0,5.14-.01,10.27,0,15.42-5.18.05-10.35.03-15.53.01.02-15.69.01-31.39,0-47.08.14-3.81,1.78-7.53,4.49-10.21ZM311.06,15.49c0,5.15,0,10.3,0,15.45,5.08-.02,10.16.05,15.24-.04-.01-5.13,0-10.27,0-15.41-5.08,0-10.16,0-15.24,0Z"/>
      <path class="cls-1" d="M349.55,46.37c5.15,0,10.3,0,15.44,0,0,5.16,0,10.32,0,15.48h-15.44c0-5.16,0-10.32,0-15.48Z"/>
    </g>
  </g>
</svg>